# xmcd CD database file
#
# Track frame offsets:
#	150
#	21773
#	53630
#	75590
#	101802
#	114465
#	147523
#	162753
#	175366
#	197082
#	220322
#	251946
#	266485
#
# Disc length: 3848 seconds
#
# Revision: 0
# Processed by: cddbd v1.4PL0 Copyright (c) Steve Scherf et al.
# Submitted via: CDex 1.50beta10
#
DISCID=ba0f060d
DTITLE=Orquesta Son - Si Quiero
DYEAR=2000
DGENRE=Salsa
TTITLE0=Si Quiero Correr
TTITLE1=Lovers
TTITLE2=Ritual Lust
TTITLE3=Luanne
TTITLE4=La Pedigueña
TTITLE5=Sugar Mama
TTITLE6=Drive
TTITLE7=More Water
TTITLE8=Fire in Her Belly
TTITLE9=La Llave
TTITLE10=Sensual
TTITLE11=Hip
TTITLE12=So Loved
EXTD=YEAR: 2000
EXTT0=
EXTT1=
EXTT2=
EXTT3=
EXTT4=
EXTT5=
EXTT6=
EXTT7=
EXTT8=
EXTT9=
EXTT10=
EXTT11=
EXTT12=
PLAYORDER=
